<svg xmlns="http://www.w3.org/2000/svg" viewBox="0 0 32 32">
  <defs>
    <radialGradient id="glow" cx="40%" cy="38%" r="55%">
      <stop offset="0%" stop-color="#93c5fd"/>
      <stop offset="50%" stop-color="#4d8bff"/>
      <stop offset="100%" stop-color="#1e3a8a"/>
    </radialGradient>
    <radialGradient id="bg" cx="50%" cy="50%" r="50%">
      <stop offset="0%" stop-color="#0f172a"/>
      <stop offset="100%" stop-color="#050510"/>
    </radialGradient>
  </defs>
  <!-- Dark background -->
  <circle cx="16" cy="16" r="16" fill="url(#bg)"/>
  <!-- Globe -->
  <circle cx="16" cy="16" r="11" fill="url(#glow)" opacity="0.9"/>
  <!-- Longitude lines -->
  <ellipse cx="16" cy="16" rx="5" ry="11" fill="none" stroke="#1e3a8a" stroke-width="0.7" opacity="0.5"/>
  <ellipse cx="16" cy="16" rx="9" ry="11" fill="none" stroke="#1e3a8a" stroke-width="0.5" opacity="0.4"/>
  <!-- Latitude lines -->
  <ellipse cx="16" cy="16" rx="11" ry="4" fill="none" stroke="#1e3a8a" stroke-width="0.6" opacity="0.45"/>
  <ellipse cx="16" cy="12" rx="9.5" ry="3" fill="none" stroke="#1e3a8a" stroke-width="0.5" opacity="0.35"/>
  <ellipse cx="16" cy="20" rx="9.5" ry="3" fill="none" stroke="#1e3a8a" stroke-width="0.5" opacity="0.35"/>
  <!-- Heart -->
  <path d="M16 22.5 C16 22.5 10.5 18 10.5 14.8 C10.5 13 12 11.8 13.5 12.2 C14.5 12.5 15.5 13.5 16 14.5 C16.5 13.5 17.5 12.5 18.5 12.2 C20 11.8 21.5 13 21.5 14.8 C21.5 18 16 22.5 16 22.5Z" fill="#ec4899" opacity="0.85"/>
  <!-- Outer glow ring -->
  <circle cx="16" cy="16" r="12.5" fill="none" stroke="#4d8bff" stroke-width="0.5" opacity="0.3"/>
</svg>
